<svg width="67" height="37" viewBox="0 0 67 37" fill="none" xmlns="http://www.w3.org/2000/svg">
<path d="M7.2 17.4C5.97333 17.4 4.82667 17.2 3.76 16.8C2.69333 16.3733 1.85333 15.8133 1.24 15.12C0.946667 14.8 0.8 14.4267 0.8 14C0.8 13.5467 0.973333 13.1467 1.32 12.8C1.66667 12.4533 2.08 12.28 2.56 12.28C3.01333 12.28 3.4 12.44 3.72 12.76C4.17333 13.1867 4.74667 13.52 5.44 13.76C6.13333 14 6.81333 14.12 7.48 14.12C8.17333 14.12 8.77333 13.9733 9.28 13.68C9.78667 13.36 10.04 12.8667 10.04 12.2C10.04 11.64 9.8 11.2133 9.32 10.92C8.86667 10.6 8.09333 10.3467 7 10.16C5.05333 9.84 3.58667 9.30667 2.6 8.56C1.61333 7.78667 1.12 6.70667 1.12 5.32C1.12 3.82667 1.69333 2.64 2.84 1.76C3.98667 0.853333 5.49333 0.399999 7.36 0.399999C9.28 0.399999 10.8133 0.893332 11.96 1.88C12.4133 2.25333 12.64 2.69333 12.64 3.2C12.64 3.62667 12.4667 4 12.12 4.32C11.8 4.61333 11.4133 4.76 10.96 4.76C10.6133 4.76 10.2933 4.66667 10 4.48C8.98667 3.84 7.92 3.52 6.8 3.52C6.13333 3.52 5.57333 3.65333 5.12 3.92C4.66667 4.18667 4.44 4.58667 4.44 5.12C4.44 5.68 4.78667 6.12 5.48 6.44C6.2 6.76 7.24 7.05333 8.6 7.32C9.34667 7.45333 10.08 7.69333 10.8 8.04C11.5467 8.36 12.16 8.85333 12.64 9.52C13.1467 10.1867 13.4 11.0933 13.4 12.24C13.4 13.76 12.8133 15 11.64 15.96C10.4933 16.92 9.01333 17.4 7.2 17.4ZM16.6141 17.4C16.1074 17.4 15.6807 17.2533 15.3341 16.96C14.9874 16.6667 14.8141 16.2933 14.8141 15.84V6.76C14.8141 6.33333 14.9741 5.97333 15.2941 5.68C15.6407 5.36 16.0807 5.2 16.6141 5.2C17.2274 5.2 17.6941 5.41333 18.0141 5.84C18.1474 6 18.2274 6.16 18.2541 6.32C18.5741 5.92 19.0007 5.6 19.5341 5.36C20.0674 5.12 20.6674 5 21.3341 5C23.1474 5 24.4541 5.6 25.2541 6.8C25.7341 6.21333 26.3207 5.77333 27.0141 5.48C27.7074 5.16 28.4274 5 29.1741 5C30.6674 5 31.8407 5.44 32.6941 6.32C33.5741 7.2 34.0141 8.6 34.0141 10.52V15.92C34.0141 16.3467 33.8407 16.7067 33.4941 17C33.1741 17.2667 32.7607 17.4 32.2541 17.4C31.7474 17.4 31.3207 17.2533 30.9741 16.96C30.6541 16.6667 30.4941 16.2933 30.4941 15.84V10.96C30.4941 9.97333 30.3207 9.26667 29.9741 8.84C29.6274 8.41333 29.1341 8.2 28.4941 8.2C27.8541 8.2 27.3341 8.4 26.9341 8.8C26.5607 9.17333 26.3074 9.62667 26.1741 10.16V15.92C26.1741 16.3467 26.0007 16.7067 25.6541 17C25.3341 17.2667 24.9207 17.4 24.4141 17.4C23.9074 17.4 23.4807 17.2533 23.1341 16.96C22.8141 16.6667 22.6541 16.2933 22.6541 15.84V10.96C22.6541 9.97333 22.4807 9.26667 22.1341 8.84C21.7874 8.41333 21.2941 8.2 20.6541 8.2C20.0407 8.2 19.5341 8.4 19.1341 8.8C18.7341 9.17333 18.4674 9.61333 18.3341 10.12V15.8C18.3341 16.2533 18.1607 16.64 17.8141 16.96C17.4941 17.2533 17.0941 17.4 16.6141 17.4ZM41.0016 17.4C39.2149 17.4 37.7616 16.84 36.6416 15.72C35.5482 14.5733 35.0016 13.0533 35.0016 11.16C35.0016 9.26667 35.5349 7.77333 36.6016 6.68C37.6949 5.56 39.1216 5 40.8816 5C42.1349 5 43.2282 5.44 44.1616 6.32C44.2682 6 44.4682 5.73333 44.7616 5.52C45.0549 5.30667 45.4016 5.2 45.8016 5.2C46.3349 5.2 46.7616 5.36 47.0816 5.68C47.4282 5.97333 47.6016 6.33333 47.6016 6.76V15.84C47.6016 16.2933 47.4282 16.6667 47.0816 16.96C46.7616 17.2533 46.3349 17.4 45.8016 17.4C44.9216 17.4 44.3749 17.0133 44.1616 16.24C43.3082 17.0133 42.2549 17.4 41.0016 17.4ZM41.2816 14.16C42.1349 14.16 42.8149 13.88 43.3216 13.32C43.8282 12.7333 44.0816 12.0133 44.0816 11.16C44.0816 10.28 43.8282 9.57333 43.3216 9.04C42.8149 8.50667 42.1349 8.24 41.2816 8.24C40.4549 8.24 39.7749 8.50667 39.2416 9.04C38.7349 9.57333 38.4816 10.28 38.4816 11.16C38.4816 12.0133 38.7349 12.7333 39.2416 13.32C39.7749 13.88 40.4549 14.16 41.2816 14.16ZM51.2063 17.28C50.6996 17.28 50.2729 17.1333 49.9263 16.84C49.5796 16.5467 49.4063 16.1733 49.4063 15.72V6.76C49.4063 6.33333 49.5663 5.97333 49.8863 5.68C50.2329 5.36 50.6729 5.2 51.2063 5.2C51.6863 5.2 52.0729 5.34667 52.3663 5.64C52.6863 5.90667 52.8729 6.24 52.9263 6.64C53.2196 6.18667 53.6196 5.8 54.1263 5.48C54.6329 5.16 55.1663 5 55.7263 5C56.0729 5 56.4063 5.04 56.7263 5.12C57.0996 5.22667 57.4063 5.44 57.6463 5.76C57.8863 6.05333 58.0063 6.4 58.0063 6.8C58.0063 7.36 57.8196 7.82667 57.4463 8.2C57.0996 8.54667 56.6863 8.66667 56.2063 8.56C55.8596 8.48 55.5129 8.44 55.1663 8.44C54.5529 8.44 54.0463 8.65333 53.6463 9.08C53.2463 9.50667 53.0063 10.3733 52.9263 11.68V15.68C52.9263 16.1333 52.7529 16.52 52.4063 16.84C52.0863 17.1333 51.6863 17.28 51.2063 17.28ZM63.5969 17.4C62.4502 17.4 61.5035 17.0667 60.7569 16.4C60.0102 15.7333 59.6369 14.7067 59.6369 13.32V9C59.6369 8.73333 59.5035 8.6 59.2369 8.6H58.6369C58.1569 8.6 57.7969 8.45333 57.5569 8.16C57.3169 7.86667 57.1969 7.49333 57.1969 7.04C57.1969 6.56 57.3169 6.17333 57.5569 5.88C57.7969 5.56 58.1569 5.4 58.6369 5.4H59.2369C59.5035 5.4 59.6369 5.26667 59.6369 5V2.04C59.6369 1.58667 59.7969 1.2 60.1169 0.879999C60.4369 0.559999 60.8502 0.399999 61.3569 0.399999C61.8635 0.399999 62.2769 0.559999 62.5969 0.879999C62.9435 1.17333 63.1169 1.56 63.1169 2.04V5C63.1169 5.26667 63.2502 5.4 63.5169 5.4H64.9969C65.4502 5.4 65.8235 5.56 66.1169 5.88C66.4369 6.2 66.5969 6.58667 66.5969 7.04C66.5969 7.49333 66.4369 7.86667 66.1169 8.16C65.8235 8.45333 65.4369 8.6 64.9569 8.6H63.5169C63.2502 8.6 63.1169 8.73333 63.1169 9V12.76C63.1169 13.24 63.1969 13.5733 63.3569 13.76C63.5435 13.9467 63.7702 14.04 64.0369 14.04C64.1435 14.04 64.3569 14.0133 64.6769 13.96C64.9969 13.88 65.1969 13.84 65.2769 13.84C65.7035 13.84 66.0635 14 66.3569 14.32C66.6502 14.64 66.7969 15.0267 66.7969 15.48C66.7969 15.8267 66.6902 16.1467 66.4769 16.44C66.2902 16.7333 65.9835 16.9467 65.5569 17.08C65.2102 17.1867 64.8769 17.2667 64.5569 17.32C64.2369 17.3733 63.9169 17.4 63.5969 17.4ZM5.8 36.4C5.24 36.4 4.73333 36.2267 4.28 35.88C3.82667 35.5067 3.54667 35.0267 3.44 34.44L1 21.44C0.946667 20.9067 1.09333 20.4667 1.44 20.12C1.81333 19.7733 2.26667 19.6 2.8 19.6C3.25333 19.6 3.64 19.7333 3.96 20C4.28 20.2667 4.48 20.6267 4.56 21.08L6 29.84C6.05333 30.16 6.17333 30.32 6.36 30.32C6.52 30.32 6.64 30.1733 6.72 29.88L8.64 22.8C8.77333 22.2933 9.02667 21.92 9.4 21.68C9.77333 21.4133 10.1733 21.28 10.6 21.28C11.0267 21.28 11.4267 21.4133 11.8 21.68C12.1733 21.92 12.4267 22.2933 12.56 22.8L14.48 29.88C14.56 30.1733 14.68 30.32 14.84 30.32C15.0533 30.32 15.1733 30.16 15.2 29.84L16.64 21.08C16.72 20.6267 16.92 20.2667 17.24 20C17.5867 19.7333 17.9733 19.6 18.4 19.6C18.9333 19.6 19.3733 19.7733 19.72 20.12C20.0933 20.4667 20.2533 20.9067 20.2 21.44L17.72 34.44C17.6133 35.0267 17.3333 35.5067 16.88 35.88C16.4267 36.2267 15.92 36.4 15.36 36.4C14.8533 36.4 14.3733 36.24 13.92 35.92C13.4933 35.5733 13.1733 35.12 12.96 34.56L10.96 27.52C10.88 27.2267 10.76 27.08 10.6 27.08C10.4133 27.08 10.28 27.2267 10.2 27.52L8.2 34.56C8.04 35.12 7.73333 35.5733 7.28 35.92C6.82667 36.24 6.33333 36.4 5.8 36.4ZM26.225 36.4C24.4383 36.4 22.985 35.84 21.865 34.72C20.7717 33.5733 20.225 32.0533 20.225 30.16C20.225 28.2667 20.7583 26.7733 21.825 25.68C22.9183 24.56 24.345 24 26.105 24C27.3583 24 28.4517 24.44 29.385 25.32C29.4917 25 29.6917 24.7333 29.985 24.52C30.2783 24.3067 30.625 24.2 31.025 24.2C31.5583 24.2 31.985 24.36 32.305 24.68C32.6517 24.9733 32.825 25.3333 32.825 25.76V34.84C32.825 35.2933 32.6517 35.6667 32.305 35.96C31.985 36.2533 31.5583 36.4 31.025 36.4C30.145 36.4 29.5983 36.0133 29.385 35.24C28.5317 36.0133 27.4783 36.4 26.225 36.4ZM26.505 33.16C27.3583 33.16 28.0383 32.88 28.545 32.32C29.0517 31.7333 29.305 31.0133 29.305 30.16C29.305 29.28 29.0517 28.5733 28.545 28.04C28.0383 27.5067 27.3583 27.24 26.505 27.24C25.6783 27.24 24.9983 27.5067 24.465 28.04C23.9583 28.5733 23.705 29.28 23.705 30.16C23.705 31.0133 23.9583 31.7333 24.465 32.32C24.9983 32.88 25.6783 33.16 26.505 33.16ZM36.4697 36.4C35.963 36.4 35.5364 36.2533 35.1897 35.96C34.843 35.6667 34.6697 35.2933 34.6697 34.84V19.96C34.6697 19.5333 34.8297 19.1733 35.1497 18.88C35.4964 18.56 35.9364 18.4 36.4697 18.4C36.9764 18.4 37.3897 18.56 37.7097 18.88C38.0297 19.1733 38.1897 19.5467 38.1897 20V34.8C38.1897 35.2533 38.0164 35.64 37.6697 35.96C37.3497 36.2533 36.9497 36.4 36.4697 36.4ZM42.0666 36.4C41.5599 36.4 41.1332 36.2533 40.7866 35.96C40.4399 35.6667 40.2666 35.2933 40.2666 34.84V19.96C40.2666 19.5333 40.4266 19.1733 40.7466 18.88C41.0932 18.56 41.5332 18.4 42.0666 18.4C42.5732 18.4 42.9866 18.56 43.3066 18.88C43.6266 19.1733 43.7866 19.5467 43.7866 20V34.8C43.7866 35.2533 43.6132 35.64 43.2666 35.96C42.9466 36.2533 42.5466 36.4 42.0666 36.4ZM51.4634 36.4C49.6501 36.4 48.1168 35.8667 46.8634 34.8C45.6368 33.7067 45.0234 32.2133 45.0234 30.32C45.0234 28.3467 45.6234 26.8 46.8234 25.68C48.0501 24.56 49.5834 24 51.4234 24C52.7301 24 53.8101 24.24 54.6634 24.72C55.5168 25.2 56.1568 25.8133 56.5834 26.56C57.0101 27.3067 57.2234 28.0933 57.2234 28.92C57.2234 30.3067 56.6101 31 55.3834 31H48.7434C48.5301 31 48.4234 31.1333 48.4234 31.4C48.4234 32.0133 48.7568 32.5067 49.4234 32.88C50.1168 33.2267 50.8901 33.4 51.7434 33.4C52.2768 33.4 52.8101 33.3333 53.3434 33.2C53.8768 33.04 54.3434 32.8133 54.7434 32.52C55.0101 32.3333 55.2901 32.24 55.5834 32.24C55.9834 32.24 56.3168 32.3867 56.5834 32.68C56.8768 32.9733 57.0234 33.32 57.0234 33.72C57.0234 34.2 56.7701 34.6533 56.2634 35.08C55.7834 35.48 55.0768 35.8 54.1434 36.04C53.2368 36.28 52.3434 36.4 51.4634 36.4ZM53.5434 28.68C53.5968 28.68 53.6634 28.6667 53.7434 28.64C53.8501 28.6133 53.9034 28.52 53.9034 28.36C53.9034 27.96 53.6501 27.6 53.1434 27.28C52.6634 26.9333 52.0368 26.76 51.2634 26.76C50.4368 26.76 49.7568 26.9467 49.2234 27.32C48.7168 27.6667 48.4634 28.0267 48.4634 28.4C48.4634 28.5867 48.5701 28.68 48.7834 28.68H53.5434ZM63.4125 36.4C62.2658 36.4 61.3192 36.0667 60.5725 35.4C59.8258 34.7333 59.4525 33.7067 59.4525 32.32V28C59.4525 27.7333 59.3192 27.6 59.0525 27.6H58.4525C57.9725 27.6 57.6125 27.4533 57.3725 27.16C57.1325 26.8667 57.0125 26.4933 57.0125 26.04C57.0125 25.56 57.1325 25.1733 57.3725 24.88C57.6125 24.56 57.9725 24.4 58.4525 24.4H59.0525C59.3192 24.4 59.4525 24.2667 59.4525 24V21.04C59.4525 20.5867 59.6125 20.2 59.9325 19.88C60.2525 19.56 60.6658 19.4 61.1725 19.4C61.6792 19.4 62.0925 19.56 62.4125 19.88C62.7592 20.1733 62.9325 20.56 62.9325 21.04V24C62.9325 24.2667 63.0658 24.4 63.3325 24.4H64.8125C65.2658 24.4 65.6392 24.56 65.9325 24.88C66.2525 25.2 66.4125 25.5867 66.4125 26.04C66.4125 26.4933 66.2525 26.8667 65.9325 27.16C65.6392 27.4533 65.2525 27.6 64.7725 27.6H63.3325C63.0658 27.6 62.9325 27.7333 62.9325 28V31.76C62.9325 32.24 63.0125 32.5733 63.1725 32.76C63.3592 32.9467 63.5858 33.04 63.8525 33.04C63.9592 33.04 64.1725 33.0133 64.4925 32.96C64.8125 32.88 65.0125 32.84 65.0925 32.84C65.5192 32.84 65.8792 33 66.1725 33.32C66.4658 33.64 66.6125 34.0267 66.6125 34.48C66.6125 34.8267 66.5058 35.1467 66.2925 35.44C66.1058 35.7333 65.7992 35.9467 65.3725 36.08C65.0258 36.1867 64.6925 36.2667 64.3725 36.32C64.0525 36.3733 63.7325 36.4 63.4125 36.4Z" fill="#E4E4E4"/>
<style>
        path { fill: #000; }
        @media (prefers-color-scheme: dark) {
            path { fill: #FFF; }
        }
    </style>
</svg>
