<svg width="74" height="101" viewBox="0 0 74 101" fill="none" xmlns="http://www.w3.org/2000/svg">
<rect width="74" height="101" fill="#252837"/>
<g clip-path="url(#clip0_2432_22)">
<rect width="74" height="59.7045" transform="translate(0 41)" fill="#EC7C69"/>
<path d="M0 70.8172V100.705H37H74V70.8172V40.9299H37H0V70.8172ZM63.2648 45.6258C64.281 45.7926 65.2104 46.6704 65.5578 47.7763C65.6099 47.9431 66.6174 53.6748 67.7986 60.5037C69.5705 70.7997 69.9266 73.0116 69.8831 73.4329C69.7789 74.4511 69.1014 75.4342 68.1895 75.8994C67.8681 76.0662 67.2254 76.2241 65.7836 76.4787C64.6979 76.6718 63.7946 76.8473 63.7773 76.8649C63.7599 76.8825 63.8381 77.4618 63.9597 78.1552C64.2202 79.6123 64.2376 80.3232 64.0465 80.9377C63.7599 81.8417 62.9087 82.6668 61.9794 82.9301C61.5451 83.053 23.4768 89.7327 23.1988 89.7327C23.0859 89.7327 23.0164 89.5045 22.8514 88.5038C22.7385 87.8192 22.6603 87.2574 22.6777 87.2399C22.6951 87.2223 24.3193 86.9327 26.2735 86.5904C42.4197 83.764 61.05 80.4988 61.2151 80.4549C61.328 80.4286 61.4756 80.3232 61.5451 80.2091C61.658 80.0336 61.5277 79.1646 60.1033 70.8523C59.2348 65.8141 58.4965 61.6096 58.4531 61.5043C58.3836 61.3288 58.1057 61.3726 41.4991 64.2955C32.223 65.9282 24.5798 67.2448 24.5277 67.2272C24.4322 67.1921 24.1803 65.8755 24.2585 65.8053C24.2758 65.7789 31.9103 64.4272 41.2125 62.7858C50.5059 61.1532 58.1317 59.8015 58.1491 59.7839C58.1665 59.7664 58.0101 58.7482 57.793 57.5193C57.4716 55.6585 57.3761 55.2547 57.2284 55.1231C57.1242 55.0441 56.9939 54.9739 56.9331 54.9739C56.8376 54.9739 17.6402 61.8466 17.0843 61.9607C16.954 61.9871 16.7803 62.1012 16.7108 62.2153C16.5892 62.3996 16.6066 62.5488 16.8411 63.9006C16.9801 64.7081 17.0756 65.3927 17.0582 65.4103C17.0061 65.4717 14.6524 65.8492 14.5916 65.8141C14.5568 65.7877 14.5047 65.6034 14.4786 65.4015C14.4439 65.1909 14.3223 64.4623 14.2094 63.7777C14.0357 62.7946 14.0096 62.4347 14.0704 62.0573C14.2355 61.0303 14.8955 60.135 15.8075 59.6962C16.2157 59.4943 19.2556 58.9413 36.3486 55.9394C48.4996 53.8065 56.6378 52.4108 56.9766 52.4108C58.0883 52.4108 59.1045 53.0428 59.6604 54.0961C59.9036 54.5525 59.9817 54.6315 60.1381 54.5877C60.2336 54.5701 61.1456 54.4033 62.1444 54.2278C63.1519 54.0434 63.9857 53.8855 64.0031 53.8679C64.0552 53.8152 63.1432 48.619 63.039 48.4171C62.9869 48.3118 62.8827 48.1976 62.8132 48.1713C62.7437 48.145 62.0141 48.2415 61.1977 48.382C60.3813 48.5312 51.3744 50.1111 41.1777 51.9017C27.0899 54.3682 22.5995 55.1845 22.4693 55.2986C22.339 55.4215 22.3129 55.5532 22.339 55.9833L22.365 56.5099L21.1664 56.7206C20.515 56.8347 19.9592 56.9137 19.9331 56.8874C19.8289 56.782 19.6986 55.7638 19.742 55.3513C19.8463 54.298 20.5932 53.2623 21.566 52.8234C21.9134 52.6654 26.5601 51.8227 42.081 49.1017C53.1202 47.1707 62.2399 45.5732 62.3615 45.5556C62.5787 45.5205 62.6568 45.5293 63.2648 45.6258ZM12.924 64.9188C13.4798 65.2874 13.6883 65.7351 13.8967 67.0429C14.0009 67.6661 14.0965 68.2279 14.1139 68.2805C14.1312 68.342 14.7479 68.263 15.9552 68.0435C17.8399 67.6924 18.5 67.6398 18.9082 67.7978C19.2035 67.9031 19.6899 68.3595 19.8549 68.6843C20.046 69.0529 20.6974 72.8624 20.6279 73.2222C20.5498 73.6787 20.1937 74.2404 19.8636 74.4511C19.7073 74.5476 19.3946 74.6793 19.1688 74.7408C18.9082 74.811 18.7606 74.8987 18.7606 74.9865C18.7606 75.0567 19.134 77.2511 19.5857 79.858C20.0373 82.4649 20.3761 84.6242 20.3413 84.6593C20.3066 84.6944 19.7594 84.8085 19.1254 84.9139C18.2568 85.0631 17.9441 85.0806 17.9007 85.0104C17.866 84.949 17.4751 82.7809 17.0322 80.1828C16.5805 77.5934 16.2071 75.4254 16.1897 75.3815C16.1636 75.3288 15.9117 75.3025 15.5991 75.3201C14.9477 75.3552 14.5481 75.206 14.1139 74.7495C13.7925 74.416 13.7056 74.1614 13.4624 72.7483C13.3582 72.169 13.2627 71.6774 13.2453 71.6599C13.2193 71.6423 12.3073 71.7915 11.2129 71.9934C9.47583 72.3094 9.16315 72.3445 8.78968 72.2567C8.29461 72.1514 7.73874 71.7213 7.53029 71.2824C7.37395 70.9401 6.77465 67.5432 6.77465 66.9902C6.78334 66.1388 7.38263 65.4366 8.27723 65.2435C9.75376 64.9275 11.5777 64.6379 12.038 64.6554C12.4463 64.673 12.6547 64.7344 12.924 64.9188ZM48.2911 66.5163C48.3519 66.5865 48.5169 67.3413 48.6559 68.1928C48.9165 69.7025 48.9165 69.7376 48.7601 69.8956C48.6298 70.0272 46.9188 70.352 40.37 71.5106C35.8449 72.3094 32.0319 72.9677 31.9017 72.9677C31.7714 72.9677 31.6064 72.9326 31.5369 72.8887C31.4587 72.836 31.3197 72.3006 31.1721 71.458C30.8855 69.878 30.8681 69.6059 31.0592 69.4479C31.2068 69.325 47.2315 66.4197 47.8655 66.3934C48.0479 66.3846 48.2303 66.4373 48.2911 66.5163ZM10.5963 75.952C10.6657 75.9959 10.8221 76.1188 10.935 76.2417C11.1087 76.4348 11.1869 76.7684 11.4995 78.5765C11.6993 79.7351 11.8817 80.7007 11.8991 80.727C11.9251 80.7446 12.3333 80.6919 12.811 80.6041C14.027 80.3671 14.4265 80.3759 14.661 80.6304C14.9216 80.9113 15.434 83.764 15.2951 84.1327C15.1561 84.5101 14.8955 84.6066 13.4451 84.8524C11.7948 85.1333 11.708 85.1333 11.4214 84.8787C11.2303 84.712 11.1695 84.5276 10.9784 83.4129C10.8568 82.7107 10.7439 82.0963 10.7265 82.0436C10.7092 81.9734 10.162 82.0348 8.97207 82.2367C8.02536 82.4035 7.11338 82.5352 6.94836 82.5352C6.54883 82.5352 6.09719 82.2455 5.95822 81.8944C5.81057 81.5345 5.21127 78.0411 5.21127 77.5408C5.21127 77.2336 5.26338 77.1107 5.49789 76.8737C5.84531 76.5226 5.71503 76.5577 8.1209 76.1364C9.91879 75.8204 10.2749 75.7941 10.5963 75.952ZM58.5747 76.4085C58.6442 76.5226 58.7571 77.0053 58.8352 77.4793C59.035 78.6467 59.0611 78.6204 57.3327 78.9188C56.0212 79.147 56.0125 79.147 55.8475 78.9715C55.7345 78.8574 55.6303 78.5414 55.5435 78.0586C55.3784 77.1107 55.3784 76.8825 55.5521 76.7332C55.7085 76.6016 57.5151 76.2417 58.0796 76.2241C58.3749 76.2154 58.4705 76.2593 58.5747 76.4085ZM25.4918 79.6825C25.6134 79.7966 25.7089 79.9282 25.7089 79.9634C25.7089 79.9985 25.8218 80.7007 25.9695 81.5082C26.2387 83.0881 26.2301 83.29 25.8653 83.5358C25.7524 83.606 24.988 83.7903 24.1716 83.9396C22.7819 84.1853 22.6517 84.2029 22.4172 84.0712C22.2782 84.001 22.1305 83.8957 22.1045 83.843C22.0176 83.7113 21.5399 80.9815 21.5399 80.6568C21.5399 80.4373 21.7744 80.016 21.9134 79.9809C21.9221 79.9809 22.5387 79.8668 23.277 79.7264C25.0054 79.4104 25.2225 79.4016 25.4918 79.6825ZM20.2458 86.5114C20.7756 86.8712 20.8798 87.1346 21.1925 88.9076C21.3575 89.8205 21.4878 90.7509 21.4878 90.9791C21.4791 91.497 21.1925 91.9534 20.7148 92.1904C20.5237 92.2782 19.5857 92.4976 18.6303 92.6644C17.2146 92.9189 16.8324 92.9628 16.5718 92.8926C16.2331 92.796 15.7728 92.4537 15.6338 92.1904C15.5296 91.9885 14.939 88.6531 14.939 88.2581C14.939 87.828 15.1822 87.3803 15.547 87.1346C15.7901 86.9678 16.2505 86.8449 17.4664 86.6255C19.438 86.2568 19.8463 86.2393 20.2458 86.5114ZM8.09484 87.1697C8.30329 87.3452 8.38146 87.6349 8.64202 89.127C8.90259 90.6807 8.90259 90.6368 8.66808 90.9177C8.49437 91.1195 8.30329 91.1722 7.03522 91.4004C5.30681 91.7164 5.1939 91.7164 4.90728 91.4619C4.7162 91.2951 4.6554 91.102 4.42958 89.7766C4.28193 88.9515 4.16902 88.2142 4.16902 88.1352C4.16902 88.0474 4.27324 87.8631 4.40352 87.7226C4.62935 87.4857 4.75963 87.4418 6.07982 87.2048C7.53897 86.9415 7.83428 86.9327 8.09484 87.1697Z" fill="#252837"/>
<path d="M62.1877 55.7726C61.1194 55.9657 60.2248 56.1413 60.2074 56.1588C60.1466 56.2115 63.2473 74.0561 63.3255 74.1439C63.3689 74.1965 64.1072 74.1088 65.245 73.9069C67.1645 73.5733 67.3121 73.5207 67.3121 73.1081C67.3121 72.9238 64.3851 55.8253 64.307 55.562C64.2809 55.483 64.2375 55.4127 64.2027 55.4215C64.168 55.4215 63.2647 55.5883 62.1877 55.7726Z" fill="#252837"/>
</g>
<path d="M10.2 20.4C8.97333 20.4 7.82667 20.2 6.76 19.8C5.69333 19.3733 4.85333 18.8133 4.24 18.12C3.94667 17.8 3.8 17.4267 3.8 17C3.8 16.5467 3.97333 16.1467 4.32 15.8C4.66667 15.4533 5.08 15.28 5.56 15.28C6.01333 15.28 6.4 15.44 6.72 15.76C7.17333 16.1867 7.74667 16.52 8.44 16.76C9.13333 17 9.81333 17.12 10.48 17.12C11.1733 17.12 11.7733 16.9733 12.28 16.68C12.7867 16.36 13.04 15.8667 13.04 15.2C13.04 14.64 12.8 14.2133 12.32 13.92C11.8667 13.6 11.0933 13.3467 10 13.16C8.05333 12.84 6.58667 12.3067 5.6 11.56C4.61333 10.7867 4.12 9.70667 4.12 8.32C4.12 6.82667 4.69333 5.64 5.84 4.76C6.98667 3.85333 8.49333 3.4 10.36 3.4C12.28 3.4 13.8133 3.89333 14.96 4.88C15.4133 5.25333 15.64 5.69333 15.64 6.2C15.64 6.62667 15.4667 7 15.12 7.32C14.8 7.61333 14.4133 7.76 13.96 7.76C13.6133 7.76 13.2933 7.66667 13 7.48C11.9867 6.84 10.92 6.52 9.8 6.52C9.13333 6.52 8.57333 6.65333 8.12 6.92C7.66667 7.18667 7.44 7.58667 7.44 8.12C7.44 8.68 7.78667 9.12 8.48 9.44C9.2 9.76 10.24 10.0533 11.6 10.32C12.3467 10.4533 13.08 10.6933 13.8 11.04C14.5467 11.36 15.16 11.8533 15.64 12.52C16.1467 13.1867 16.4 14.0933 16.4 15.24C16.4 16.76 15.8133 18 14.64 18.96C13.4933 19.92 12.0133 20.4 10.2 20.4ZM19.6141 20.4C19.1074 20.4 18.6807 20.2533 18.3341 19.96C17.9874 19.6667 17.8141 19.2933 17.8141 18.84V9.76C17.8141 9.33333 17.9741 8.97333 18.2941 8.68C18.6407 8.36 19.0807 8.2 19.6141 8.2C20.2274 8.2 20.6941 8.41333 21.0141 8.84C21.1474 9 21.2274 9.16 21.2541 9.32C21.5741 8.92 22.0007 8.6 22.5341 8.36C23.0674 8.12 23.6674 8 24.3341 8C26.1474 8 27.4541 8.6 28.2541 9.8C28.7341 9.21333 29.3207 8.77333 30.0141 8.48C30.7074 8.16 31.4274 8 32.1741 8C33.6674 8 34.8407 8.44 35.6941 9.32C36.5741 10.2 37.0141 11.6 37.0141 13.52V18.92C37.0141 19.3467 36.8407 19.7067 36.4941 20C36.1741 20.2667 35.7607 20.4 35.2541 20.4C34.7474 20.4 34.3207 20.2533 33.9741 19.96C33.6541 19.6667 33.4941 19.2933 33.4941 18.84V13.96C33.4941 12.9733 33.3207 12.2667 32.9741 11.84C32.6274 11.4133 32.1341 11.2 31.4941 11.2C30.8541 11.2 30.3341 11.4 29.9341 11.8C29.5607 12.1733 29.3074 12.6267 29.1741 13.16V18.92C29.1741 19.3467 29.0007 19.7067 28.6541 20C28.3341 20.2667 27.9207 20.4 27.4141 20.4C26.9074 20.4 26.4807 20.2533 26.1341 19.96C25.8141 19.6667 25.6541 19.2933 25.6541 18.84V13.96C25.6541 12.9733 25.4807 12.2667 25.1341 11.84C24.7874 11.4133 24.2941 11.2 23.6541 11.2C23.0407 11.2 22.5341 11.4 22.1341 11.8C21.7341 12.1733 21.4674 12.6133 21.3341 13.12V18.8C21.3341 19.2533 21.1607 19.64 20.8141 19.96C20.4941 20.2533 20.0941 20.4 19.6141 20.4ZM44.0016 20.4C42.2149 20.4 40.7616 19.84 39.6416 18.72C38.5482 17.5733 38.0016 16.0533 38.0016 14.16C38.0016 12.2667 38.5349 10.7733 39.6016 9.68C40.6949 8.56 42.1216 8 43.8816 8C45.1349 8 46.2282 8.44 47.1616 9.32C47.2682 9 47.4682 8.73333 47.7616 8.52C48.0549 8.30667 48.4016 8.2 48.8016 8.2C49.3349 8.2 49.7616 8.36 50.0816 8.68C50.4282 8.97333 50.6016 9.33333 50.6016 9.76V18.84C50.6016 19.2933 50.4282 19.6667 50.0816 19.96C49.7616 20.2533 49.3349 20.4 48.8016 20.4C47.9216 20.4 47.3749 20.0133 47.1616 19.24C46.3082 20.0133 45.2549 20.4 44.0016 20.4ZM44.2816 17.16C45.1349 17.16 45.8149 16.88 46.3216 16.32C46.8282 15.7333 47.0816 15.0133 47.0816 14.16C47.0816 13.28 46.8282 12.5733 46.3216 12.04C45.8149 11.5067 45.1349 11.24 44.2816 11.24C43.4549 11.24 42.7749 11.5067 42.2416 12.04C41.7349 12.5733 41.4816 13.28 41.4816 14.16C41.4816 15.0133 41.7349 15.7333 42.2416 16.32C42.7749 16.88 43.4549 17.16 44.2816 17.16ZM54.2063 20.28C53.6996 20.28 53.2729 20.1333 52.9263 19.84C52.5796 19.5467 52.4063 19.1733 52.4063 18.72V9.76C52.4063 9.33333 52.5663 8.97333 52.8863 8.68C53.2329 8.36 53.6729 8.2 54.2063 8.2C54.6863 8.2 55.0729 8.34667 55.3663 8.64C55.6863 8.90667 55.8729 9.24 55.9263 9.64C56.2196 9.18667 56.6196 8.8 57.1263 8.48C57.6329 8.16 58.1663 8 58.7263 8C59.0729 8 59.4063 8.04 59.7263 8.12C60.0996 8.22667 60.4063 8.44 60.6463 8.76C60.8863 9.05333 61.0063 9.4 61.0063 9.8C61.0063 10.36 60.8196 10.8267 60.4463 11.2C60.0996 11.5467 59.6863 11.6667 59.2063 11.56C58.8596 11.48 58.5129 11.44 58.1663 11.44C57.5529 11.44 57.0463 11.6533 56.6463 12.08C56.2463 12.5067 56.0063 13.3733 55.9263 14.68V18.68C55.9263 19.1333 55.7529 19.52 55.4063 19.84C55.0863 20.1333 54.6863 20.28 54.2063 20.28ZM66.5969 20.4C65.4502 20.4 64.5035 20.0667 63.7569 19.4C63.0102 18.7333 62.6369 17.7067 62.6369 16.32V12C62.6369 11.7333 62.5035 11.6 62.2369 11.6H61.6369C61.1569 11.6 60.7969 11.4533 60.5569 11.16C60.3169 10.8667 60.1969 10.4933 60.1969 10.04C60.1969 9.56 60.3169 9.17333 60.5569 8.88C60.7969 8.56 61.1569 8.4 61.6369 8.4H62.2369C62.5035 8.4 62.6369 8.26667 62.6369 8V5.04C62.6369 4.58667 62.7969 4.2 63.1169 3.88C63.4369 3.56 63.8502 3.4 64.3569 3.4C64.8635 3.4 65.2769 3.56 65.5969 3.88C65.9435 4.17333 66.1169 4.56 66.1169 5.04V8C66.1169 8.26667 66.2502 8.4 66.5169 8.4H67.9969C68.4502 8.4 68.8235 8.56 69.1169 8.88C69.4369 9.2 69.5969 9.58667 69.5969 10.04C69.5969 10.4933 69.4369 10.8667 69.1169 11.16C68.8235 11.4533 68.4369 11.6 67.9569 11.6H66.5169C66.2502 11.6 66.1169 11.7333 66.1169 12V15.76C66.1169 16.24 66.1969 16.5733 66.3569 16.76C66.5435 16.9467 66.7702 17.04 67.0369 17.04C67.1435 17.04 67.3569 17.0133 67.6769 16.96C67.9969 16.88 68.1969 16.84 68.2769 16.84C68.7035 16.84 69.0635 17 69.3569 17.32C69.6502 17.64 69.7969 18.0267 69.7969 18.48C69.7969 18.8267 69.6902 19.1467 69.4769 19.44C69.2902 19.7333 68.9835 19.9467 68.5569 20.08C68.2102 20.1867 67.8769 20.2667 67.5569 20.32C67.2369 20.3733 66.9169 20.4 66.5969 20.4ZM8.8 39.4C8.24 39.4 7.73333 39.2267 7.28 38.88C6.82667 38.5067 6.54667 38.0267 6.44 37.44L4 24.44C3.94667 23.9067 4.09333 23.4667 4.44 23.12C4.81333 22.7733 5.26667 22.6 5.8 22.6C6.25333 22.6 6.64 22.7333 6.96 23C7.28 23.2667 7.48 23.6267 7.56 24.08L9 32.84C9.05333 33.16 9.17333 33.32 9.36 33.32C9.52 33.32 9.64 33.1733 9.72 32.88L11.64 25.8C11.7733 25.2933 12.0267 24.92 12.4 24.68C12.7733 24.4133 13.1733 24.28 13.6 24.28C14.0267 24.28 14.4267 24.4133 14.8 24.68C15.1733 24.92 15.4267 25.2933 15.56 25.8L17.48 32.88C17.56 33.1733 17.68 33.32 17.84 33.32C18.0533 33.32 18.1733 33.16 18.2 32.84L19.64 24.08C19.72 23.6267 19.92 23.2667 20.24 23C20.5867 22.7333 20.9733 22.6 21.4 22.6C21.9333 22.6 22.3733 22.7733 22.72 23.12C23.0933 23.4667 23.2533 23.9067 23.2 24.44L20.72 37.44C20.6133 38.0267 20.3333 38.5067 19.88 38.88C19.4267 39.2267 18.92 39.4 18.36 39.4C17.8533 39.4 17.3733 39.24 16.92 38.92C16.4933 38.5733 16.1733 38.12 15.96 37.56L13.96 30.52C13.88 30.2267 13.76 30.08 13.6 30.08C13.4133 30.08 13.28 30.2267 13.2 30.52L11.2 37.56C11.04 38.12 10.7333 38.5733 10.28 38.92C9.82667 39.24 9.33333 39.4 8.8 39.4ZM29.225 39.4C27.4383 39.4 25.985 38.84 24.865 37.72C23.7717 36.5733 23.225 35.0533 23.225 33.16C23.225 31.2667 23.7583 29.7733 24.825 28.68C25.9183 27.56 27.345 27 29.105 27C30.3583 27 31.4517 27.44 32.385 28.32C32.4917 28 32.6917 27.7333 32.985 27.52C33.2783 27.3067 33.625 27.2 34.025 27.2C34.5583 27.2 34.985 27.36 35.305 27.68C35.6517 27.9733 35.825 28.3333 35.825 28.76V37.84C35.825 38.2933 35.6517 38.6667 35.305 38.96C34.985 39.2533 34.5583 39.4 34.025 39.4C33.145 39.4 32.5983 39.0133 32.385 38.24C31.5317 39.0133 30.4783 39.4 29.225 39.4ZM29.505 36.16C30.3583 36.16 31.0383 35.88 31.545 35.32C32.0517 34.7333 32.305 34.0133 32.305 33.16C32.305 32.28 32.0517 31.5733 31.545 31.04C31.0383 30.5067 30.3583 30.24 29.505 30.24C28.6783 30.24 27.9983 30.5067 27.465 31.04C26.9583 31.5733 26.705 32.28 26.705 33.16C26.705 34.0133 26.9583 34.7333 27.465 35.32C27.9983 35.88 28.6783 36.16 29.505 36.16ZM39.4697 39.4C38.963 39.4 38.5364 39.2533 38.1897 38.96C37.843 38.6667 37.6697 38.2933 37.6697 37.84V22.96C37.6697 22.5333 37.8297 22.1733 38.1497 21.88C38.4964 21.56 38.9364 21.4 39.4697 21.4C39.9764 21.4 40.3897 21.56 40.7097 21.88C41.0297 22.1733 41.1897 22.5467 41.1897 23V37.8C41.1897 38.2533 41.0164 38.64 40.6697 38.96C40.3497 39.2533 39.9497 39.4 39.4697 39.4ZM45.0666 39.4C44.5599 39.4 44.1332 39.2533 43.7866 38.96C43.4399 38.6667 43.2666 38.2933 43.2666 37.84V22.96C43.2666 22.5333 43.4266 22.1733 43.7466 21.88C44.0932 21.56 44.5332 21.4 45.0666 21.4C45.5732 21.4 45.9866 21.56 46.3066 21.88C46.6266 22.1733 46.7866 22.5467 46.7866 23V37.8C46.7866 38.2533 46.6132 38.64 46.2666 38.96C45.9466 39.2533 45.5466 39.4 45.0666 39.4ZM54.4634 39.4C52.6501 39.4 51.1168 38.8667 49.8634 37.8C48.6368 36.7067 48.0234 35.2133 48.0234 33.32C48.0234 31.3467 48.6234 29.8 49.8234 28.68C51.0501 27.56 52.5834 27 54.4234 27C55.7301 27 56.8101 27.24 57.6634 27.72C58.5168 28.2 59.1568 28.8133 59.5834 29.56C60.0101 30.3067 60.2234 31.0933 60.2234 31.92C60.2234 33.3067 59.6101 34 58.3834 34H51.7434C51.5301 34 51.4234 34.1333 51.4234 34.4C51.4234 35.0133 51.7568 35.5067 52.4234 35.88C53.1168 36.2267 53.8901 36.4 54.7434 36.4C55.2768 36.4 55.8101 36.3333 56.3434 36.2C56.8768 36.04 57.3434 35.8133 57.7434 35.52C58.0101 35.3333 58.2901 35.24 58.5834 35.24C58.9834 35.24 59.3168 35.3867 59.5834 35.68C59.8768 35.9733 60.0234 36.32 60.0234 36.72C60.0234 37.2 59.7701 37.6533 59.2634 38.08C58.7834 38.48 58.0768 38.8 57.1434 39.04C56.2368 39.28 55.3434 39.4 54.4634 39.4ZM56.5434 31.68C56.5968 31.68 56.6634 31.6667 56.7434 31.64C56.8501 31.6133 56.9034 31.52 56.9034 31.36C56.9034 30.96 56.6501 30.6 56.1434 30.28C55.6634 29.9333 55.0368 29.76 54.2634 29.76C53.4368 29.76 52.7568 29.9467 52.2234 30.32C51.7168 30.6667 51.4634 31.0267 51.4634 31.4C51.4634 31.5867 51.5701 31.68 51.7834 31.68H56.5434ZM66.4125 39.4C65.2658 39.4 64.3192 39.0667 63.5725 38.4C62.8258 37.7333 62.4525 36.7067 62.4525 35.32V31C62.4525 30.7333 62.3192 30.6 62.0525 30.6H61.4525C60.9725 30.6 60.6125 30.4533 60.3725 30.16C60.1325 29.8667 60.0125 29.4933 60.0125 29.04C60.0125 28.56 60.1325 28.1733 60.3725 27.88C60.6125 27.56 60.9725 27.4 61.4525 27.4H62.0525C62.3192 27.4 62.4525 27.2667 62.4525 27V24.04C62.4525 23.5867 62.6125 23.2 62.9325 22.88C63.2525 22.56 63.6658 22.4 64.1725 22.4C64.6792 22.4 65.0925 22.56 65.4125 22.88C65.7592 23.1733 65.9325 23.56 65.9325 24.04V27C65.9325 27.2667 66.0658 27.4 66.3325 27.4H67.8125C68.2658 27.4 68.6392 27.56 68.9325 27.88C69.2525 28.2 69.4125 28.5867 69.4125 29.04C69.4125 29.4933 69.2525 29.8667 68.9325 30.16C68.6392 30.4533 68.2525 30.6 67.7725 30.6H66.3325C66.0658 30.6 65.9325 30.7333 65.9325 31V34.76C65.9325 35.24 66.0125 35.5733 66.1725 35.76C66.3592 35.9467 66.5858 36.04 66.8525 36.04C66.9592 36.04 67.1725 36.0133 67.4925 35.96C67.8125 35.88 68.0125 35.84 68.0925 35.84C68.5192 35.84 68.8792 36 69.1725 36.32C69.4658 36.64 69.6125 37.0267 69.6125 37.48C69.6125 37.8267 69.5058 38.1467 69.2925 38.44C69.1058 38.7333 68.7992 38.9467 68.3725 39.08C68.0258 39.1867 67.6925 39.2667 67.3725 39.32C67.0525 39.3733 66.7325 39.4 66.4125 39.4Z" fill="#E4E4E4"/>
<defs>
<clipPath id="clip0_2432_22">
<rect width="74" height="59.7045" fill="white" transform="translate(0 41)"/>
</clipPath>
</defs>
</svg>
