<svg width="175" height="140" viewBox="0 0 175 140" fill="none" xmlns="http://www.w3.org/2000/svg">
<g clip-path="url(#clip0_2431_5)">
<rect width="175" height="140" fill="#EC7C69"/>
<path d="M0 69.9179V140H87.5H175V69.9179V-0.164244H87.5H0V69.9179ZM149.613 10.8472C152.016 11.2383 154.214 13.2965 155.035 15.8898C155.158 16.2809 157.541 29.721 160.334 45.7339C164.525 69.8767 165.367 75.0634 165.264 76.0514C165.018 78.4389 163.415 80.7441 161.259 81.8349C160.499 82.226 158.979 82.5965 155.569 83.1933C153.002 83.6462 150.866 84.0578 150.824 84.099C150.783 84.1401 150.968 85.4985 151.256 87.1245C151.872 90.5412 151.913 92.2083 151.461 93.6491C150.783 95.769 148.77 97.7037 146.573 98.3212C145.546 98.6094 55.5193 114.272 54.8621 114.272C54.595 114.272 54.4307 113.737 54.0405 111.391C53.7734 109.785 53.5886 108.468 53.6297 108.427C53.6708 108.386 57.5117 107.707 62.1332 106.904C100.317 100.277 144.375 92.62 144.765 92.517C145.032 92.4553 145.381 92.2083 145.546 91.9407C145.813 91.5291 145.505 89.4915 142.136 70.0002C140.082 58.1861 138.336 48.3272 138.234 48.0803C138.069 47.6686 137.412 47.7715 98.1396 54.6254C76.203 58.4536 58.1279 61.541 58.0047 61.4998C57.7787 61.4175 57.1831 58.3301 57.3679 58.1655C57.409 58.1037 75.4636 54.9341 97.4618 51.0852C119.439 47.257 137.474 44.0873 137.515 44.0462C137.556 44.005 137.186 41.6175 136.672 38.736C135.913 34.3726 135.687 33.4258 135.337 33.117C135.091 32.9318 134.783 32.7672 134.639 32.7672C134.413 32.7672 41.7165 48.8829 40.402 49.1505C40.0939 49.2123 39.6831 49.4798 39.5188 49.7474C39.2312 50.1796 39.2723 50.5295 39.8269 53.6992C40.1555 55.5927 40.3814 57.1981 40.3404 57.2393C40.2171 57.3834 34.6508 58.2684 34.507 58.1861C34.4249 58.1243 34.3016 57.6921 34.24 57.2187C34.1578 56.7247 33.8703 55.0164 33.6033 53.411C33.1925 51.1058 33.1309 50.262 33.2746 49.3769C33.6649 46.9688 35.2259 44.8694 37.3826 43.8403C38.348 43.3669 45.5369 42.0703 85.9595 35.0312C114.695 30.0297 133.941 26.7572 134.742 26.7572C137.371 26.7572 139.774 28.2391 141.089 30.7089C141.664 31.7792 141.849 31.9644 142.218 31.8615C142.444 31.8204 144.601 31.4293 146.963 31.0177C149.346 30.5854 151.317 30.215 151.358 30.1738C151.482 30.0503 149.325 17.8657 149.079 17.3923C148.955 17.1453 148.709 16.8778 148.545 16.816C148.38 16.7543 146.655 16.9807 144.724 17.31C142.793 17.6599 121.493 21.3647 97.3796 25.5634C64.0639 31.347 53.4448 33.2611 53.1367 33.5287C52.8286 33.8168 52.767 34.1256 52.8286 35.1341L52.8902 36.369L50.0557 36.863C48.5152 37.1306 47.2007 37.3158 47.1391 37.2541C46.8926 37.0071 46.5845 34.6195 46.6872 33.6522C46.9337 31.1823 48.7001 28.7536 51.0006 27.7245C51.8222 27.3541 62.811 25.3782 99.5158 18.9977C125.622 14.4696 147.189 10.7237 147.476 10.6825C147.99 10.6002 148.175 10.6208 149.613 10.8472ZM30.5634 56.0867C31.8779 56.9511 32.3709 58.0008 32.8638 61.0676C33.1103 62.5289 33.3363 63.8462 33.3773 63.9696C33.4184 64.1137 34.8767 63.9285 37.7318 63.4139C42.1889 62.5906 43.75 62.4672 44.7154 62.8376C45.4137 63.0846 46.5639 64.1549 46.9542 64.9164C47.4061 65.7809 48.9466 74.7135 48.7823 75.5574C48.5974 76.6277 47.7553 77.9449 46.9747 78.4389C46.605 78.6653 45.8656 78.974 45.3316 79.1181C44.7154 79.2827 44.3662 79.4886 44.3662 79.6944C44.3662 79.859 45.2494 85.0046 46.3175 91.1175C47.3855 97.2304 48.1866 102.294 48.1044 102.376C48.0223 102.458 46.7283 102.726 45.2289 102.973C43.1749 103.323 42.4354 103.364 42.3327 103.199C42.2506 103.055 41.3263 97.9713 40.2787 91.879C39.2107 85.8073 38.3274 80.7235 38.2864 80.6206C38.2247 80.4971 37.6291 80.4353 36.8897 80.4765C35.3492 80.5588 34.4043 80.2089 33.3773 79.1387C32.6174 78.3565 32.412 77.7597 31.8368 74.4459C31.5904 73.0875 31.3644 71.9349 31.3233 71.8938C31.2617 71.8526 29.105 72.2025 26.517 72.6759C22.409 73.4168 21.6696 73.4992 20.7864 73.2933C19.6156 73.0464 18.301 72.0378 17.8081 71.0087C17.4384 70.206 16.0211 62.2407 16.0211 60.9441C16.0417 58.9476 17.4589 57.301 19.5745 56.8482C23.0663 56.1073 27.3797 55.4281 28.4683 55.4692C29.4337 55.5104 29.9266 55.6545 30.5634 56.0867ZM114.202 59.8326C114.346 59.9973 114.736 61.7674 115.064 63.7638C115.681 67.3039 115.681 67.3863 115.311 67.7568C115.003 68.0655 110.957 68.827 95.4694 71.5439C84.7682 73.4168 75.7511 74.9605 75.443 74.9605C75.1349 74.9605 74.7447 74.8782 74.5804 74.7753C74.3955 74.6518 74.0669 73.3963 73.7177 71.4204C73.0399 67.7156 72.9988 67.0775 73.4507 66.7071C73.7998 66.4189 111.696 59.6062 113.195 59.5445C113.627 59.5239 114.058 59.6474 114.202 59.8326ZM25.0587 81.9584C25.223 82.0613 25.5927 82.3495 25.8597 82.6376C26.2705 83.0904 26.4554 83.8726 27.1948 88.1125C27.6672 90.8293 28.0986 93.0933 28.1397 93.1551C28.2013 93.1963 29.1667 93.0728 30.2963 92.8669C33.1719 92.3112 34.1168 92.3318 34.6713 92.9287C35.2875 93.5873 36.4994 100.277 36.1708 101.141C35.8421 102.026 35.2259 102.252 31.7958 102.829C27.8932 103.487 27.6878 103.487 27.01 102.89C26.5581 102.499 26.4143 102.067 25.9624 99.4532C25.6749 97.8067 25.4079 96.3659 25.3668 96.2424C25.3257 96.0778 24.0317 96.2218 21.2177 96.6952C18.9789 97.0863 16.8222 97.395 16.4319 97.395C15.4871 97.395 14.419 96.7158 14.0904 95.8925C13.7412 95.0487 12.3239 86.857 12.3239 85.6838C12.3239 84.9634 12.4472 84.6753 13.0018 84.1195C13.8234 83.2963 13.5153 83.3786 19.2048 82.3906C23.4566 81.6497 24.2987 81.5879 25.0587 81.9584ZM138.521 83.0287C138.685 83.2963 138.952 84.4283 139.137 85.5397C139.61 88.2771 139.671 88.2154 135.584 88.9152C132.482 89.4503 132.462 89.4503 132.072 89.0387C131.805 88.7711 131.558 88.0301 131.353 86.8981C130.962 84.6753 130.962 84.1401 131.373 83.7902C131.743 83.4815 136.015 82.6376 137.35 82.5965C138.049 82.5759 138.275 82.6788 138.521 83.0287ZM60.2846 90.7058C60.5722 90.9734 60.7981 91.2821 60.7981 91.3644C60.7981 91.4468 61.0651 93.0933 61.4143 94.9869C62.051 98.6917 62.0305 99.1651 61.1678 99.7414C60.9008 99.906 59.0933 100.338 57.1625 100.688C53.8761 101.264 53.5681 101.306 53.0135 100.997C52.6848 100.832 52.3357 100.585 52.274 100.462C52.0686 100.153 50.9389 93.752 50.9389 92.9904C50.9389 92.4759 51.4935 91.4879 51.8222 91.4056C51.8427 91.4056 53.301 91.138 55.0469 90.8087C59.1344 90.0678 59.6479 90.0472 60.2846 90.7058ZM47.8785 106.719C49.1314 107.563 49.3779 108.18 50.1173 112.338C50.5076 114.478 50.8157 116.66 50.8157 117.195C50.7952 118.409 50.1174 119.48 48.9877 120.035C48.5358 120.241 46.3175 120.756 44.0581 121.147C40.7101 121.744 39.8063 121.847 39.1901 121.682C38.3891 121.456 37.3005 120.653 36.9718 120.035C36.7253 119.562 35.3286 111.741 35.3286 110.815C35.3286 109.806 35.9037 108.756 36.7664 108.18C37.3415 107.789 38.4301 107.501 41.3057 106.986C45.9683 106.122 46.9337 106.081 47.8785 106.719ZM19.1432 108.262C19.6361 108.674 19.821 109.353 20.4372 112.852C21.0534 116.495 21.0534 116.392 20.4988 117.051C20.088 117.524 19.6361 117.648 16.6373 118.183C12.5499 118.924 12.2829 118.924 11.605 118.327C11.1532 117.936 11.0094 117.483 10.4753 114.375C10.1262 112.441 9.85915 110.712 9.85915 110.526C9.85915 110.321 10.1056 109.888 10.4137 109.559C10.9478 109.003 11.2559 108.9 14.3779 108.345C17.8286 107.727 18.527 107.707 19.1432 108.262Z" fill="#252837"/>
<path d="M147.066 34.6401C144.539 35.0929 142.424 35.5045 142.382 35.5457C142.239 35.6692 149.571 77.5126 149.756 77.7185C149.859 77.8419 151.605 77.6361 154.296 77.1627C158.835 76.3806 159.184 76.2571 159.184 75.2898C159.184 74.8575 152.262 34.7636 152.077 34.1461C152.016 33.9609 151.913 33.7962 151.831 33.8168C151.749 33.8168 149.613 34.2078 147.066 34.6401Z" fill="#252837"/>
</g>
<defs>
<clipPath id="clip0_2431_5">
<rect width="175" height="140" fill="white"/>
</clipPath>
</defs>
</svg>
