<svg width="334" height="44" viewBox="0 0 334 44" fill="none" xmlns="http://www.w3.org/2000/svg">
<path d="M16.28 43.96C13.336 43.96 10.584 43.48 8.024 42.52C5.464 41.496 3.448 40.152 1.976 38.488C1.272 37.72 0.92 36.824 0.92 35.8C0.92 34.712 1.336 33.752 2.168 32.92C3 32.088 3.992 31.672 5.144 31.672C6.232 31.672 7.16 32.056 7.928 32.824C9.016 33.848 10.392 34.648 12.056 35.224C13.72 35.8 15.352 36.088 16.952 36.088C18.616 36.088 20.056 35.736 21.272 35.032C22.488 34.264 23.096 33.08 23.096 31.48C23.096 30.136 22.52 29.112 21.368 28.408C20.28 27.64 18.424 27.032 15.8 26.584C11.128 25.816 7.608 24.536 5.24 22.744C2.872 20.888 1.688 18.296 1.688 14.968C1.688 11.384 3.064 8.536 5.816 6.424C8.568 4.248 12.184 3.16 16.664 3.16C21.272 3.16 24.952 4.344 27.704 6.712C28.792 7.608 29.336 8.664 29.336 9.88C29.336 10.904 28.92 11.8 28.088 12.568C27.32 13.272 26.392 13.624 25.304 13.624C24.472 13.624 23.704 13.4 23 12.952C20.568 11.416 18.008 10.648 15.32 10.648C13.72 10.648 12.376 10.968 11.288 11.608C10.2 12.248 9.656 13.208 9.656 14.488C9.656 15.832 10.488 16.888 12.152 17.656C13.88 18.424 16.376 19.128 19.64 19.768C21.432 20.088 23.192 20.664 24.92 21.496C26.712 22.264 28.184 23.448 29.336 25.048C30.552 26.648 31.16 28.824 31.16 31.576C31.16 35.224 29.752 38.2 26.936 40.504C24.184 42.808 20.632 43.96 16.28 43.96ZM38.8737 43.96C37.6577 43.96 36.6337 43.608 35.8017 42.904C34.9697 42.2 34.5537 41.304 34.5537 40.216V18.424C34.5537 17.4 34.9377 16.536 35.7057 15.832C36.5377 15.064 37.5937 14.68 38.8737 14.68C40.3457 14.68 41.4657 15.192 42.2337 16.216C42.5537 16.6 42.7457 16.984 42.8097 17.368C43.5777 16.408 44.6017 15.64 45.8817 15.064C47.1617 14.488 48.6017 14.2 50.2017 14.2C54.5538 14.2 57.6898 15.64 59.6098 18.52C60.7618 17.112 62.1698 16.056 63.8338 15.352C65.4978 14.584 67.2258 14.2 69.0178 14.2C72.6018 14.2 75.4178 15.256 77.4658 17.368C79.5778 19.48 80.6338 22.84 80.6338 27.448V40.408C80.6338 41.432 80.2178 42.296 79.3858 43C78.6178 43.64 77.6258 43.96 76.4097 43.96C75.1938 43.96 74.1698 43.608 73.3378 42.904C72.5698 42.2 72.1858 41.304 72.1858 40.216V28.504C72.1858 26.136 71.7698 24.44 70.9378 23.416C70.1058 22.392 68.9218 21.88 67.3858 21.88C65.8498 21.88 64.6018 22.36 63.6418 23.32C62.7458 24.216 62.1378 25.304 61.8177 26.584V40.408C61.8177 41.432 61.4017 42.296 60.5698 43C59.8018 43.64 58.8098 43.96 57.5937 43.96C56.3777 43.96 55.3537 43.608 54.5217 42.904C53.7538 42.2 53.3698 41.304 53.3698 40.216V28.504C53.3698 26.136 52.9538 24.44 52.1217 23.416C51.2897 22.392 50.1057 21.88 48.5697 21.88C47.0977 21.88 45.8817 22.36 44.9217 23.32C43.9617 24.216 43.3217 25.272 43.0017 26.488V40.12C43.0017 41.208 42.5857 42.136 41.7537 42.904C40.9857 43.608 40.0257 43.96 38.8737 43.96ZM97.4037 43.96C93.1157 43.96 89.6277 42.616 86.9397 39.928C84.3157 37.176 83.0037 33.528 83.0037 28.984C83.0037 24.44 84.2837 20.856 86.8437 18.232C89.4677 15.544 92.8917 14.2 97.1157 14.2C100.124 14.2 102.748 15.256 104.988 17.368C105.244 16.6 105.724 15.96 106.428 15.448C107.132 14.936 107.964 14.68 108.924 14.68C110.204 14.68 111.228 15.064 111.996 15.832C112.828 16.536 113.244 17.4 113.244 18.424V40.216C113.244 41.304 112.828 42.2 111.996 42.904C111.228 43.608 110.204 43.96 108.924 43.96C106.812 43.96 105.5 43.032 104.988 41.176C102.94 43.032 100.412 43.96 97.4037 43.96ZM98.0757 36.184C100.124 36.184 101.756 35.512 102.972 34.168C104.188 32.76 104.796 31.032 104.796 28.984C104.796 26.872 104.188 25.176 102.972 23.896C101.756 22.616 100.124 21.976 98.0757 21.976C96.0917 21.976 94.4597 22.616 93.1797 23.896C91.9637 25.176 91.3557 26.872 91.3557 28.984C91.3557 31.032 91.9637 32.76 93.1797 34.168C94.4597 35.512 96.0917 36.184 98.0757 36.184ZM121.895 43.672C120.679 43.672 119.655 43.32 118.823 42.616C117.991 41.912 117.575 41.016 117.575 39.928V18.424C117.575 17.4 117.959 16.536 118.727 15.832C119.559 15.064 120.615 14.68 121.895 14.68C123.047 14.68 123.975 15.032 124.679 15.736C125.447 16.376 125.895 17.176 126.023 18.136C126.727 17.048 127.687 16.12 128.903 15.352C130.119 14.584 131.399 14.2 132.743 14.2C133.575 14.2 134.375 14.296 135.143 14.488C136.039 14.744 136.775 15.256 137.351 16.024C137.927 16.728 138.215 17.56 138.215 18.52C138.215 19.864 137.767 20.984 136.871 21.88C136.039 22.712 135.047 23 133.895 22.744C133.063 22.552 132.231 22.456 131.399 22.456C129.927 22.456 128.711 22.968 127.751 23.992C126.791 25.016 126.215 27.096 126.023 30.232V39.832C126.023 40.92 125.607 41.848 124.775 42.616C124.007 43.32 123.047 43.672 121.895 43.672ZM151.632 43.96C148.88 43.96 146.608 43.16 144.816 41.56C143.024 39.96 142.128 37.496 142.128 34.168V23.8C142.128 23.16 141.808 22.84 141.168 22.84H139.728C138.576 22.84 137.712 22.488 137.136 21.784C136.56 21.08 136.272 20.184 136.272 19.096C136.272 17.944 136.56 17.016 137.136 16.312C137.712 15.544 138.576 15.16 139.728 15.16H141.168C141.808 15.16 142.128 14.84 142.128 14.2V7.096C142.128 6.008 142.512 5.08 143.28 4.312C144.048 3.544 145.04 3.16 146.256 3.16C147.472 3.16 148.464 3.544 149.232 4.312C150.064 5.016 150.48 5.944 150.48 7.096V14.2C150.48 14.84 150.8 15.16 151.44 15.16H154.992C156.08 15.16 156.976 15.544 157.68 16.312C158.448 17.08 158.832 18.008 158.832 19.096C158.832 20.184 158.448 21.08 157.68 21.784C156.976 22.488 156.048 22.84 154.896 22.84H151.44C150.8 22.84 150.48 23.16 150.48 23.8V32.824C150.48 33.976 150.672 34.776 151.056 35.224C151.504 35.672 152.048 35.896 152.688 35.896C152.944 35.896 153.456 35.832 154.224 35.704C154.992 35.512 155.472 35.416 155.664 35.416C156.688 35.416 157.552 35.8 158.256 36.568C158.96 37.336 159.312 38.264 159.312 39.352C159.312 40.184 159.056 40.952 158.544 41.656C158.096 42.36 157.36 42.872 156.336 43.192C155.504 43.448 154.704 43.64 153.936 43.768C153.168 43.896 152.4 43.96 151.632 43.96ZM187.64 43.96C186.296 43.96 185.08 43.544 183.992 42.712C182.904 41.816 182.232 40.664 181.976 39.256L176.12 8.056C175.992 6.776 176.344 5.72 177.176 4.888C178.072 4.056 179.16 3.64 180.44 3.64C181.528 3.64 182.456 3.96 183.224 4.6C183.992 5.24 184.472 6.104 184.664 7.192L188.12 28.216C188.248 28.984 188.536 29.368 188.984 29.368C189.368 29.368 189.656 29.016 189.848 28.312L194.456 11.32C194.776 10.104 195.384 9.208 196.28 8.632C197.176 7.992 198.136 7.672 199.16 7.672C200.184 7.672 201.144 7.992 202.04 8.632C202.936 9.208 203.544 10.104 203.864 11.32L208.472 28.312C208.664 29.016 208.952 29.368 209.336 29.368C209.848 29.368 210.136 28.984 210.2 28.216L213.656 7.192C213.848 6.104 214.328 5.24 215.096 4.6C215.928 3.96 216.856 3.64 217.88 3.64C219.16 3.64 220.216 4.056 221.048 4.888C221.944 5.72 222.328 6.776 222.2 8.056L216.248 39.256C215.992 40.664 215.32 41.816 214.232 42.712C213.144 43.544 211.928 43.96 210.584 43.96C209.368 43.96 208.216 43.576 207.128 42.808C206.104 41.976 205.336 40.888 204.824 39.544L200.024 22.648C199.832 21.944 199.544 21.592 199.16 21.592C198.712 21.592 198.392 21.944 198.2 22.648L193.4 39.544C193.016 40.888 192.28 41.976 191.192 42.808C190.104 43.576 188.92 43.96 187.64 43.96ZM236.66 43.96C232.372 43.96 228.884 42.616 226.196 39.928C223.572 37.176 222.26 33.528 222.26 28.984C222.26 24.44 223.54 20.856 226.1 18.232C228.724 15.544 232.148 14.2 236.372 14.2C239.38 14.2 242.004 15.256 244.244 17.368C244.5 16.6 244.98 15.96 245.684 15.448C246.388 14.936 247.22 14.68 248.18 14.68C249.46 14.68 250.484 15.064 251.252 15.832C252.084 16.536 252.5 17.4 252.5 18.424V40.216C252.5 41.304 252.084 42.2 251.252 42.904C250.484 43.608 249.46 43.96 248.18 43.96C246.068 43.96 244.756 43.032 244.244 41.176C242.196 43.032 239.668 43.96 236.66 43.96ZM237.332 36.184C239.38 36.184 241.012 35.512 242.228 34.168C243.444 32.76 244.052 31.032 244.052 28.984C244.052 26.872 243.444 25.176 242.228 23.896C241.012 22.616 239.38 21.976 237.332 21.976C235.348 21.976 233.716 22.616 232.436 23.896C231.22 25.176 230.612 26.872 230.612 28.984C230.612 31.032 231.22 32.76 232.436 34.168C233.716 35.512 235.348 36.184 237.332 36.184ZM261.247 43.96C260.031 43.96 259.007 43.608 258.175 42.904C257.343 42.2 256.927 41.304 256.927 40.216V4.504C256.927 3.48 257.311 2.616 258.079 1.912C258.911 1.144 259.967 0.759997 261.247 0.759997C262.463 0.759997 263.455 1.144 264.223 1.912C264.991 2.616 265.375 3.512 265.375 4.6V40.12C265.375 41.208 264.959 42.136 264.127 42.904C263.359 43.608 262.399 43.96 261.247 43.96ZM274.68 43.96C273.464 43.96 272.44 43.608 271.608 42.904C270.776 42.2 270.36 41.304 270.36 40.216V4.504C270.36 3.48 270.744 2.616 271.512 1.912C272.344 1.144 273.4 0.759997 274.68 0.759997C275.896 0.759997 276.888 1.144 277.656 1.912C278.424 2.616 278.808 3.512 278.808 4.6V40.12C278.808 41.208 278.392 42.136 277.56 42.904C276.792 43.608 275.832 43.96 274.68 43.96ZM297.232 43.96C292.88 43.96 289.2 42.68 286.192 40.12C283.248 37.496 281.776 33.912 281.776 29.368C281.776 24.632 283.216 20.92 286.096 18.232C289.04 15.544 292.72 14.2 297.136 14.2C300.272 14.2 302.864 14.776 304.912 15.928C306.96 17.08 308.496 18.552 309.52 20.344C310.544 22.136 311.056 24.024 311.056 26.008C311.056 29.336 309.584 31 306.64 31H290.704C290.192 31 289.936 31.32 289.936 31.96C289.936 33.432 290.736 34.616 292.336 35.512C294 36.344 295.856 36.76 297.904 36.76C299.184 36.76 300.464 36.6 301.744 36.28C303.024 35.896 304.144 35.352 305.104 34.648C305.744 34.2 306.416 33.976 307.12 33.976C308.08 33.976 308.88 34.328 309.52 35.032C310.224 35.736 310.576 36.568 310.576 37.528C310.576 38.68 309.968 39.768 308.752 40.792C307.6 41.752 305.904 42.52 303.664 43.096C301.488 43.672 299.344 43.96 297.232 43.96ZM302.224 25.432C302.352 25.432 302.512 25.4 302.704 25.336C302.96 25.272 303.088 25.048 303.088 24.664C303.088 23.704 302.48 22.84 301.264 22.072C300.112 21.24 298.608 20.824 296.752 20.824C294.768 20.824 293.136 21.272 291.856 22.168C290.64 23 290.032 23.864 290.032 24.76C290.032 25.208 290.288 25.432 290.8 25.432H302.224ZM325.91 43.96C323.158 43.96 320.886 43.16 319.094 41.56C317.302 39.96 316.406 37.496 316.406 34.168V23.8C316.406 23.16 316.086 22.84 315.446 22.84H314.006C312.854 22.84 311.99 22.488 311.414 21.784C310.838 21.08 310.55 20.184 310.55 19.096C310.55 17.944 310.838 17.016 311.414 16.312C311.99 15.544 312.854 15.16 314.006 15.16H315.446C316.086 15.16 316.406 14.84 316.406 14.2V7.096C316.406 6.008 316.79 5.08 317.558 4.312C318.326 3.544 319.318 3.16 320.534 3.16C321.75 3.16 322.742 3.544 323.51 4.312C324.342 5.016 324.758 5.944 324.758 7.096V14.2C324.758 14.84 325.078 15.16 325.718 15.16H329.27C330.358 15.16 331.254 15.544 331.958 16.312C332.726 17.08 333.11 18.008 333.11 19.096C333.11 20.184 332.726 21.08 331.958 21.784C331.254 22.488 330.326 22.84 329.174 22.84H325.718C325.078 22.84 324.758 23.16 324.758 23.8V32.824C324.758 33.976 324.95 34.776 325.334 35.224C325.782 35.672 326.326 35.896 326.966 35.896C327.222 35.896 327.734 35.832 328.502 35.704C329.27 35.512 329.75 35.416 329.942 35.416C330.966 35.416 331.83 35.8 332.534 36.568C333.238 37.336 333.59 38.264 333.59 39.352C333.59 40.184 333.334 40.952 332.822 41.656C332.374 42.36 331.638 42.872 330.614 43.192C329.782 43.448 328.982 43.64 328.214 43.768C327.446 43.896 326.678 43.96 325.91 43.96Z" fill="#E4E4E4"/>
</svg>
